<svg id="Calque_1" data-name="Calque 1" xmlns="http://www.w3.org/2000/svg" viewBox="0 0 46.59 52.8"><defs><style>.cls-1{fill:#515151;}.cls-2{fill:#666869;opacity:0.27;}.cls-3{fill:#3d3d3d;}.cls-4{fill:#dadb12;}</style></defs><title>battery</title><rect class="cls-1" x="3.36" y="1.37" width="39.88" height="14.31" rx="4.73" ry="4.73"/><rect class="cls-2" x="2.61" y="0.17" width="41.38" height="16.46" rx="5.52" ry="5.52"/><rect class="cls-3" width="4.5" height="16.81"/><rect class="cls-3" x="42.02" width="4.5" height="16.81"/><polyline class="cls-4" points="26.37 1.81 18.63 9.45 22.52 9.45 18.63 15 26.37 8.31 21.8 8.31 26.37 1.81"/><rect class="cls-1" x="3.39" y="19.36" width="39.88" height="14.31" rx="4.73" ry="4.73"/><rect class="cls-2" x="2.64" y="18.17" width="41.38" height="16.46" rx="5.52" ry="5.52"/><rect class="cls-3" x="0.04" y="17.99" width="4.5" height="16.81"/><rect class="cls-3" x="42.05" y="17.99" width="4.5" height="16.81"/><polyline class="cls-4" points="26.41 19.81 18.66 27.45 22.56 27.45 18.66 32.99 26.41 26.3 21.84 26.3 26.41 19.81"/><rect class="cls-1" x="3.43" y="37.36" width="39.88" height="14.31" rx="4.73" ry="4.73"/><rect class="cls-2" x="2.68" y="36.16" width="41.38" height="16.46" rx="5.52" ry="5.52"/><rect class="cls-3" x="0.08" y="35.99" width="4.5" height="16.81"/><rect class="cls-3" x="42.09" y="35.99" width="4.5" height="16.81"/><polyline class="cls-4" points="26.45 37.8 18.7 45.44 22.59 45.44 18.7 50.99 26.45 44.3 21.88 44.3 26.45 37.8"/></svg>