<svg xmlns="http://www.w3.org/2000/svg" viewBox="0 0 74.72 74.72"><defs><style>.cls-1{fill:#457757;}.cls-2{fill:#578a8e;opacity:0.66;}.cls-3,.cls-4{fill:none;stroke-miterlimit:10;}.cls-3{stroke:#fff;stroke-width:0.5px;}.cls-4{stroke:#0d1111;stroke-width:0.75px;}</style></defs><title>greenhouse</title><g id="Contenu"><rect class="cls-1" x="37.62" y="39.29" width="9.43" height="20.46" rx="2.7" ry="2.7"/><rect class="cls-1" x="48.14" y="39.29" width="9.43" height="20.46" rx="2.7" ry="2.7"/><rect class="cls-1" x="55.52" y="24.32" width="9.43" height="20.46" rx="2.7" ry="2.7" transform="translate(82.14 -38.32) rotate(90)"/><rect class="cls-1" x="55.52" y="35.37" width="9.43" height="20.46" rx="2.7" ry="2.7" transform="translate(93.19 -27.27) rotate(90)"/><rect class="cls-1" x="39.11" y="29.35" width="9.43" height="20.46" rx="2.7" ry="2.7" transform="translate(75.01 66.52) rotate(-180)"/><rect class="cls-1" x="28.58" y="29.35" width="9.43" height="20.46" rx="2.7" ry="2.7" transform="translate(53.96 66.52) rotate(-180)"/><rect class="cls-1" x="33.84" y="56.96" width="9.43" height="20.46" rx="2.7" ry="2.7" transform="translate(-41.27 93.11) rotate(-90)"/><rect class="cls-1" x="33.84" y="45.91" width="9.43" height="20.46" rx="2.7" ry="2.7" transform="translate(-30.22 82.06) rotate(-90)"/></g><g id="Verre"><polygon class="cls-2" points="52.69 0.36 22.03 0.36 0.36 22.03 0.36 52.69 22.03 74.37 52.69 74.37 74.37 52.69 74.37 22.03 52.69 0.36"/></g><g id="Contours"><polygon class="cls-3" points="52.68 0.38 22.04 0.38 0.38 22.04 0.38 52.68 22.04 74.35 52.68 74.35 74.35 52.68 74.35 22.04 52.68 0.38"/><polygon class="cls-3" points="44.4 20.37 30.32 20.37 20.36 30.32 20.36 44.4 30.32 54.35 44.4 54.35 54.35 44.4 54.35 30.32 44.4 20.37"/><polygon class="cls-3" points="44.74 0.38 30.66 0.38 20.7 6.23 20.7 14.51 30.66 20.37 44.74 20.37 54.69 14.51 54.69 6.23 44.74 0.38"/><polygon class="cls-3" points="74.35 44.4 74.35 30.32 68.49 20.37 60.2 20.37 54.35 30.32 54.35 44.4 60.2 54.35 68.49 54.35 74.35 44.4"/><polygon class="cls-3" points="29.68 74.35 43.76 74.35 53.72 68.49 53.72 60.21 43.76 54.35 29.68 54.35 19.72 60.21 19.72 68.49 29.68 74.35"/><polygon class="cls-3" points="0.36 30.32 0.36 44.4 6.22 54.35 14.5 54.35 20.36 44.4 20.36 30.32 14.5 20.37 6.22 20.37 0.36 30.32"/><polygon class="cls-3" points="14.5 20.37 20.7 14.51 30.66 20.37 20.36 30.32 14.5 20.37"/><polygon class="cls-3" points="54.69 14.51 60.2 20.37 54.35 30.32 44.74 20.37 54.69 14.51"/><polygon class="cls-3" points="44.4 54.35 54.35 44.4 60.2 54.35 53.72 60.21 44.4 54.35"/><polygon class="cls-3" points="19.72 60.21 29.68 54.35 20.36 44.4 14.5 54.35 19.72 60.21"/><line class="cls-3" x1="6.22" y1="20.37" x2="7.9" y2="14.51"/><line class="cls-3" x1="20.7" y1="6.23" x2="14.5" y2="7.91"/><line class="cls-3" x1="54.69" y1="6.23" x2="60.25" y2="7.91"/><line class="cls-3" x1="68.49" y1="20.37" x2="66.82" y2="14.51"/><line class="cls-3" x1="53.72" y1="68.49" x2="60.25" y2="66.79"/><line class="cls-3" x1="68.49" y1="54.35" x2="66.82" y2="60.21"/><line class="cls-3" x1="19.72" y1="68.49" x2="14.45" y2="66.79"/><line class="cls-3" x1="6.22" y1="54.35" x2="7.88" y2="60.21"/></g><g id="BContour"><polygon class="cls-4" points="0.38 22.04 22.04 0.38 52.68 0.38 74.35 22.04 74.35 52.68 52.68 74.35 22.04 74.35 0.38 52.68 0.38 22.04"/></g></svg>