<svg id="Calque_1" data-name="Calque 1" xmlns="http://www.w3.org/2000/svg" viewBox="0 0 74.95 68.71"><defs><style>.cls-1{fill:#3a3a3a;}.cls-2,.cls-5{fill:#666869;}.cls-3{fill:#2a2b2b;}.cls-4{fill:#515151;}.cls-5{opacity:0.27;}.cls-6{fill:#3d3d3d;}.cls-7{fill:#dadb12;}</style></defs><title>leindenfrostTurbine</title><rect class="cls-1" y="28.89" width="4.98" height="34.64" rx="2.49" ry="2.49"/><rect class="cls-1" x="0.81" y="60.21" width="15.79" height="3.33" rx="1.66" ry="1.66"/><rect class="cls-1" x="0.81" y="28.89" width="18.04" height="3.38" rx="1.69" ry="1.69"/><rect class="cls-1" x="81.81" y="36.76" width="4.98" height="34.64" rx="2.49" ry="2.49" transform="translate(156.75 100.3) rotate(-180)"/><rect class="cls-1" x="70.18" y="36.76" width="15.79" height="3.38" rx="1.69" ry="1.69" transform="translate(144.31 69.04) rotate(180)"/><rect class="cls-1" x="70.18" y="68.07" width="15.79" height="3.33" rx="1.66" ry="1.66" transform="translate(144.31 131.61) rotate(180)"/><circle class="cls-2" cx="38.16" cy="24.14" r="24.14"/><circle class="cls-3" cx="37.91" cy="44.03" r="5.94" transform="matrix(0, -1, 1, 0, -18.05, 73.97)"/><circle class="cls-3" cx="37.97" cy="19.92" r="5.94" transform="matrix(0, -1, 1, 0, 6.12, 49.97)"/><circle class="cls-3" cx="62.03" cy="44.09" r="5.94" transform="translate(5.94 98.14) rotate(-89.86)"/><circle class="cls-3" cx="62.09" cy="19.98" r="5.94" transform="translate(30.12 74.15) rotate(-89.86)"/><circle class="cls-1" cx="38.16" cy="24.14" r="16.26"/><polygon class="cls-3" points="30.26 40.37 38.16 24.14 21.89 31.96 23.51 38.67 30.26 40.37"/><polygon class="cls-3" points="21.93 16.24 38.16 24.14 30.34 7.86 23.63 9.49 21.93 16.24"/><polygon class="cls-3" points="46.06 7.9 38.16 24.14 54.44 16.32 52.81 9.6 46.06 7.9"/><polygon class="cls-3" points="54.4 32.04 38.16 24.14 45.98 40.41 52.7 38.79 54.4 32.04"/><circle class="cls-3" cx="50" cy="32.01" r="4.76" transform="translate(6.03 74.06) rotate(-89.86)"/><rect class="cls-4" x="17.71" y="53.26" width="39.88" height="14.31" rx="4.73" ry="4.73"/><rect class="cls-5" x="16.96" y="52.07" width="41.38" height="16.46" rx="5.52" ry="5.52"/><rect class="cls-6" x="14.36" y="51.9" width="4.5" height="16.81"/><rect class="cls-6" x="56.37" y="51.9" width="4.5" height="16.81"/><polyline class="cls-7" points="40.73 53.71 32.98 61.35 36.87 61.35 32.98 66.89 40.73 60.21 36.16 60.21 40.73 53.71"/></svg>