<svg id="Calque_1" data-name="Calque 1" xmlns="http://www.w3.org/2000/svg" viewBox="0 0 91.56 82.43"><defs><style>.cls-1,.cls-11{fill:#7f7f7e;}.cls-2,.cls-7{fill:#3d3d3d;}.cls-3{fill:#4d4c4b;}.cls-4{fill:#fff;}.cls-10,.cls-5,.cls-9{fill:none;}.cls-6{fill:#344899;}.cls-10,.cls-7,.cls-8,.cls-9{stroke:#1d1d1b;}.cls-10,.cls-11,.cls-7,.cls-8,.cls-9{stroke-miterlimit:10;}.cls-7,.cls-8{stroke-width:0.25px;}.cls-8{fill:#dadb12;}.cls-11,.cls-9{stroke-width:0.5px;}.cls-10{stroke-width:0.75px;}.cls-11{stroke:#010102;}</style></defs><title>solarCentral</title><polygon class="cls-1" points="62.49 0.25 31.11 0.25 8.92 11.53 8.92 27.48 31.11 38.77 62.49 38.77 84.68 27.48 84.68 11.53 62.49 0.25"/><polygon class="cls-2" points="31.1 38.77 31.1 27.48 8.92 27.48 31.1 38.77"/><polygon class="cls-2" points="8.92 11.53 31.1 11.53 31.1 0.25 8.92 11.53"/><polygon class="cls-2" points="62.49 38.77 62.49 27.48 84.68 27.48 62.49 38.77"/><polygon class="cls-2" points="84.68 11.53 62.49 11.53 62.49 0.25 84.68 11.53"/><rect class="cls-3" x="8.92" y="11.53" width="22.18" height="15.95"/><rect class="cls-3" x="62.5" y="11.53" width="22.18" height="15.95"/><rect class="cls-3" x="31.1" y="0.25" width="31.39" height="11.28"/><rect class="cls-3" x="31.1" y="27.48" width="31.39" height="11.28"/><polygon class="cls-4" points="11.75 46.13 12.81 45.37 11.75 45.37 11.75 46.13"/><polyline class="cls-4" points="22.82 45.37 21.76 45.37 22.82 46.13"/><polygon class="cls-4" points="0 46.13 1.06 45.37 0 45.37 0 46.13"/><polyline class="cls-4" points="11.07 45.37 10.01 45.37 11.07 46.13"/><polygon class="cls-4" points="25.47 47.49 26.53 46.73 25.47 46.73 25.47 47.49"/><rect class="cls-1" x="21.82" y="54.01" width="3.65" height="1.95"/><rect class="cls-1" x="67.84" y="54.01" width="3.65" height="1.95"/><rect class="cls-1" x="44.87" y="54.01" width="3.65" height="1.95"/><rect class="cls-5" x="2.09" y="44.49" width="19.73" height="37.68"/><rect class="cls-6" x="2.78" y="45.08" width="8.92" height="8.92"/><rect class="cls-6" x="12.11" y="45.08" width="8.92" height="8.92"/><rect class="cls-6" x="2.78" y="54.28" width="8.92" height="8.92"/><rect class="cls-6" x="12.11" y="54.28" width="8.92" height="8.92"/><rect class="cls-6" x="2.78" y="63.47" width="8.92" height="8.92"/><rect class="cls-6" x="12.11" y="63.47" width="8.92" height="8.92"/><rect class="cls-6" x="2.78" y="72.66" width="8.92" height="8.92"/><rect class="cls-6" x="12.11" y="72.66" width="8.92" height="8.92"/><polygon class="cls-4" points="90.2 57.82 90.95 58.88 90.95 57.82 90.2 57.82"/><polyline class="cls-4" points="90.95 68.88 90.95 67.82 90.2 68.88"/><polyline class="cls-4" points="90.95 57.13 90.95 56.07 90.2 57.13"/><rect class="cls-5" x="75.57" y="50.77" width="19.73" height="37.68" transform="translate(166.53 132.88) rotate(180)"/><rect class="cls-6" x="85.99" y="79" width="8.92" height="8.92" transform="translate(176.55 160.59) rotate(180)"/><rect class="cls-6" x="76.66" y="79" width="8.92" height="8.92" transform="translate(157.89 160.59) rotate(180)"/><rect class="cls-6" x="85.99" y="69.81" width="8.92" height="8.92" transform="translate(176.55 142.2) rotate(180)"/><rect class="cls-6" x="76.66" y="69.81" width="8.92" height="8.92" transform="translate(157.89 142.2) rotate(180)"/><rect class="cls-6" x="85.99" y="60.62" width="8.92" height="8.92" transform="translate(176.55 123.82) rotate(180)"/><rect class="cls-6" x="76.66" y="60.62" width="8.92" height="8.92" transform="translate(157.89 123.82) rotate(180)"/><rect class="cls-6" x="85.99" y="51.42" width="8.92" height="8.92" transform="translate(176.55 105.43) rotate(180)"/><rect class="cls-6" x="76.66" y="51.42" width="8.92" height="8.92" transform="translate(157.89 105.43) rotate(180)"/><path class="cls-7" d="M51.15,21.38" transform="translate(-4.35 -6.34)"/><rect class="cls-3" x="25.47" y="45.86" width="20.23" height="4.21"/><rect class="cls-3" x="25.47" y="75.08" width="20.23" height="4.21"/><rect class="cls-1" x="25.47" y="50.07" width="20.23" height="25.02"/><rect class="cls-1" x="31.38" y="79.29" width="8.64" height="1.11"/><polygon class="cls-4" points="47.61 47.49 48.67 46.73 47.61 46.73 47.61 47.49"/><rect class="cls-3" x="47.61" y="45.86" width="20.23" height="4.21"/><rect class="cls-3" x="47.61" y="75.08" width="20.23" height="4.21"/><rect class="cls-1" x="47.61" y="50.07" width="20.23" height="25.02"/><rect class="cls-1" x="53.52" y="79.29" width="8.64" height="1.11"/><polyline class="cls-8" points="49.9 12.41 42.15 20.05 46.04 20.05 42.15 25.59 49.9 18.91 45.33 18.91 49.9 12.41"/><polygon class="cls-9" points="8.92 27.48 8.92 11.53 31.1 0.25 62.5 0.25 84.68 11.53 84.68 27.48 62.5 38.77 31.1 38.77 8.92 27.48"/><polygon class="cls-9" points="21.82 54.01 21.82 44.49 2.09 44.49 2.09 82.18 21.82 82.18 21.82 55.96 25.47 55.96 25.47 79.29 31.38 79.29 31.38 80.4 40.01 80.4 40.01 79.29 45.7 79.29 45.7 55.96 47.61 55.96 47.61 79.29 53.52 79.29 53.52 80.4 62.16 80.4 62.16 79.29 67.84 79.29 67.84 55.96 71.49 55.96 71.58 82.18 91.31 82.18 91.31 44.49 71.58 44.49 71.49 54.01 67.84 54.01 67.84 45.86 47.61 45.86 47.58 54.01 45.7 54.01 45.7 45.86 25.47 45.86 25.47 54.01 21.82 54.01"/><path class="cls-10" d="M20.91,42" transform="translate(-4.35 -6.34)"/><polygon class="cls-11" points="3.39 44.49 3.39 17.55 8.92 17.55 8.92 20.78 6.16 20.78 6.16 44.49 3.39 44.49"/><polygon class="cls-11" points="90.21 44.49 90.21 17.55 84.68 17.55 84.68 20.78 87.45 20.78 87.45 44.49 90.21 44.49"/><line class="cls-9" x1="21.82" y1="54.01" x2="21.82" y2="55.96"/><line class="cls-9" x1="71.49" y1="54.01" x2="71.49" y2="55.96"/></svg>