<svg id="Calque_2" data-name="Calque 2" xmlns="http://www.w3.org/2000/svg" viewBox="0 0 100 100"><defs><style>.cls-1{fill:#232323;}.cls-2{fill:#888989;}</style></defs><title>openTrash</title><rect class="cls-1" width="100" height="100"/><path class="cls-2" d="M35.39,41.45V76.54A2.65,2.65,0,0,0,38,79.19H62.73a2.66,2.66,0,0,0,2.65-2.65V41.45Zm9,32a2.24,2.24,0,0,1-4.48,0V47.53a2.24,2.24,0,1,1,4.48,0h0Zm8.2,0a2.25,2.25,0,0,1-2.25,2.24h0a2.25,2.25,0,0,1-2.24-2.24V47.53a2.25,2.25,0,0,1,2.24-2.25h0a2.25,2.25,0,0,1,2.25,2.25h0Zm8.19,0a2.25,2.25,0,0,1-4.49,0V47.53a2.25,2.25,0,1,1,4.49,0Z"/><path class="cls-2" d="M68.26,34.4l-9.75-2.68.55-2a1.69,1.69,0,0,0-1.16-2.09l-.09,0-7-1.93a1.69,1.69,0,0,0-2.12,1.09l0,.09-.55,2-9.82-2.7a1.37,1.37,0,0,0-1.67,1v0l-.55,2a1.37,1.37,0,0,0,1,1.67h0L67,39a1.37,1.37,0,0,0,1.67-1v0l.54-2A1.37,1.37,0,0,0,68.26,34.4ZM49.79,29.32l.55-2,7,1.93-.55,2Z"/></svg>