<svg id="Calque_1" data-name="Calque 1" xmlns="http://www.w3.org/2000/svg" viewBox="0 0 100 100"><defs><style>.cls-1{fill:#232323;}.cls-2{fill:#353535;}</style></defs><title>trash</title><g id="Calque_3" data-name="Calque 3"><rect class="cls-1" width="100" height="100"/></g><g id="Calque_2" data-name="Calque 2"><path class="cls-2" d="M35.39,41.45V76.54A2.65,2.65,0,0,0,38,79.19H62.72a2.65,2.65,0,0,0,2.65-2.65h0V41.45Zm9,32a2.25,2.25,0,0,1-4.49,0V47.53a2.25,2.25,0,1,1,4.49,0Zm8.19,0a2.24,2.24,0,0,1-2.24,2.24h0a2.25,2.25,0,0,1-2.24-2.24V47.53a2.25,2.25,0,0,1,2.24-2.25h0a2.24,2.24,0,0,1,2.24,2.24h0Zm8.19,0a2.25,2.25,0,0,1-4.49,0V47.53a2.25,2.25,0,1,1,4.49,0Z"/><path class="cls-2" d="M66,35.51H55.86V33.38a1.68,1.68,0,0,0-1.66-1.7H46.82A1.68,1.68,0,0,0,45,33.18q0,.08,0,.16v2.09H34.79a1.37,1.37,0,0,0-1.37,1.36v2.07a1.37,1.37,0,0,0,1.36,1.37l31.1.13A1.37,1.37,0,0,0,67.27,39h0V36.88A1.37,1.37,0,0,0,66,35.51Zm-19.16-.07V33.35h7.28v2.09Z"/></g></svg>