<svg xmlns="http://www.w3.org/2000/svg" viewBox="0 0 90.63 82.94"><defs><style>.cls-1{fill:#303031;}.cls-2{fill:#7f7f7e;}.cls-3{fill:#4a9b9b;}.cls-4{fill:#5b5a5b;}</style></defs><title>houses</title><g id="Full"><path class="cls-1" d="M6.55,11.86s0-5.62,5.32-5.62v5.62Z" transform="translate(-4.96 -5.51)"/><path class="cls-1" d="M11.87,43.16a5.31,5.31,0,0,1-5.32-5.62h5.32Z" transform="translate(-4.96 -5.51)"/><path class="cls-1" d="M31.79,37.55s0,5.62-5.32,5.62V37.55Z" transform="translate(-4.96 -5.51)"/><path class="cls-1" d="M26.47,6.25a5.31,5.31,0,0,1,5.32,5.62H26.47Z" transform="translate(-4.96 -5.51)"/><rect class="cls-2" x="1.59" y="6.36" width="25.25" height="25.68"/><rect class="cls-2" x="6.91" y="0.74" width="14.61" height="5.62"/><rect class="cls-3" x="1.6" y="6.76" width="5.18" height="25.68"/><rect class="cls-1" x="21.65" y="6.76" width="5.19" height="25.68"/><rect class="cls-4" y="18.8" width="28.43" height="0.8"/><path class="cls-1" d="M38.51,11.8s0-5.62,5.32-5.62V11.8Z" transform="translate(-4.96 -5.51)"/><path class="cls-1" d="M43.83,43.1a5.31,5.31,0,0,1-5.32-5.62h5.32Z" transform="translate(-4.96 -5.51)"/><path class="cls-1" d="M63.75,37.48s0,5.62-5.32,5.62V37.48Z" transform="translate(-4.96 -5.51)"/><path class="cls-1" d="M58.43,6.18a5.31,5.31,0,0,1,5.32,5.62H58.43Z" transform="translate(-4.96 -5.51)"/><rect class="cls-2" x="33.55" y="6.29" width="25.25" height="25.68"/><rect class="cls-2" x="38.87" y="0.67" width="14.61" height="5.62"/><rect class="cls-3" x="33.56" y="6.69" width="5.18" height="25.68"/><rect class="cls-1" x="53.61" y="6.69" width="5.19" height="25.68"/><rect class="cls-4" x="31.96" y="18.73" width="28.43" height="0.8"/><path class="cls-1" d="M68.75,11.83s0-5.62,5.32-5.62v5.62Z" transform="translate(-4.96 -5.51)"/><path class="cls-1" d="M74.07,43.13a5.31,5.31,0,0,1-5.32-5.62h5.32Z" transform="translate(-4.96 -5.51)"/><path class="cls-1" d="M94,37.51s0,5.62-5.32,5.62V37.51Z" transform="translate(-4.96 -5.51)"/><path class="cls-1" d="M88.67,6.21A5.31,5.31,0,0,1,94,11.83H88.67Z" transform="translate(-4.96 -5.51)"/><rect class="cls-2" x="63.79" y="6.32" width="25.25" height="25.68"/><rect class="cls-2" x="69.11" y="0.71" width="14.61" height="5.62"/><rect class="cls-3" x="63.8" y="6.73" width="5.18" height="25.68"/><rect class="cls-1" x="83.85" y="6.73" width="5.19" height="25.68"/><rect class="cls-4" x="62.2" y="18.76" width="28.43" height="0.8"/><path class="cls-1" d="M6.55,57.15s0-5.62,5.32-5.62v5.62Z" transform="translate(-4.96 -5.51)"/><path class="cls-1" d="M11.87,88.45a5.31,5.31,0,0,1-5.32-5.62h5.32Z" transform="translate(-4.96 -5.51)"/><path class="cls-1" d="M31.8,82.83s0,5.62-5.32,5.62V82.83Z" transform="translate(-4.96 -5.51)"/><path class="cls-1" d="M26.48,51.53a5.31,5.31,0,0,1,5.32,5.62H26.48Z" transform="translate(-4.96 -5.51)"/><rect class="cls-2" x="1.59" y="51.64" width="25.25" height="25.68"/><rect class="cls-2" x="6.91" y="46.02" width="14.61" height="5.62"/><rect class="cls-3" x="1.6" y="52.04" width="5.18" height="25.68"/><rect class="cls-1" x="21.65" y="52.04" width="5.19" height="25.68"/><rect class="cls-4" x="0.01" y="64.08" width="28.43" height="0.8"/><path class="cls-1" d="M38.51,57.08s0-5.62,5.32-5.62v5.62Z" transform="translate(-4.96 -5.51)"/><path class="cls-1" d="M43.83,88.38a5.31,5.31,0,0,1-5.32-5.62h5.32Z" transform="translate(-4.96 -5.51)"/><path class="cls-1" d="M63.76,82.77s0,5.62-5.32,5.62V82.77Z" transform="translate(-4.96 -5.51)"/><path class="cls-1" d="M58.44,51.46a5.31,5.31,0,0,1,5.32,5.62H58.44Z" transform="translate(-4.96 -5.51)"/><rect class="cls-2" x="33.55" y="51.58" width="25.25" height="25.68"/><rect class="cls-2" x="38.87" y="45.96" width="14.61" height="5.62"/><rect class="cls-3" x="33.56" y="51.98" width="5.18" height="25.68"/><rect class="cls-1" x="53.61" y="51.98" width="5.19" height="25.68"/><rect class="cls-4" x="31.97" y="64.02" width="28.43" height="0.8"/><path class="cls-1" d="M68.75,57.11s0-5.62,5.32-5.62v5.62Z" transform="translate(-4.96 -5.51)"/><path class="cls-1" d="M74.07,88.41a5.31,5.31,0,0,1-5.32-5.62h5.32Z" transform="translate(-4.96 -5.51)"/><path class="cls-1" d="M94,82.8s0,5.62-5.32,5.62V82.8Z" transform="translate(-4.96 -5.51)"/><path class="cls-1" d="M88.68,51.5A5.31,5.31,0,0,1,94,57.11H88.68Z" transform="translate(-4.96 -5.51)"/><rect class="cls-2" x="63.79" y="51.61" width="25.25" height="25.68"/><rect class="cls-2" x="69.11" y="45.99" width="14.61" height="5.62"/><rect class="cls-3" x="63.8" y="52.01" width="5.18" height="25.68"/><rect class="cls-1" x="83.85" y="52.01" width="5.19" height="25.68"/><rect class="cls-4" x="62.21" y="64.05" width="28.43" height="0.8"/></g><g id="Entry"><rect class="cls-1" x="6.78" y="32.84" width="2.22" height="4.81"/><rect class="cls-1" x="19.42" y="32.84" width="2.22" height="4.81"/><rect class="cls-1" x="6.78" y="0.06" width="2.22" height="6.29"/><rect class="cls-1" x="19.42" y="0.06" width="2.22" height="6.29"/><rect class="cls-2" x="9" y="32.84" width="10.42" height="4.08"/><rect class="cls-4" y="32.04" width="28.43" height="0.8"/><rect class="cls-4" y="6.36" width="28.43" height="0.8"/><rect class="cls-1" x="38.74" y="32.78" width="2.22" height="4.81"/><rect class="cls-1" x="51.38" y="32.78" width="2.22" height="4.81"/><rect class="cls-1" x="38.74" width="2.22" height="6.29"/><rect class="cls-1" x="51.38" width="2.22" height="6.29"/><rect class="cls-2" x="40.96" y="32.78" width="10.42" height="4.08"/><rect class="cls-4" x="31.96" y="31.98" width="28.43" height="0.8"/><rect class="cls-4" x="31.96" y="6.29" width="28.43" height="0.8"/><rect class="cls-1" x="68.98" y="32.81" width="2.22" height="4.81"/><rect class="cls-1" x="81.62" y="32.81" width="2.22" height="4.81"/><rect class="cls-1" x="68.98" y="0.03" width="2.22" height="6.29"/><rect class="cls-1" x="81.62" y="0.03" width="2.22" height="6.29"/><rect class="cls-2" x="71.2" y="32.81" width="10.42" height="4.08"/><rect class="cls-4" x="62.2" y="32.01" width="28.43" height="0.8"/><rect class="cls-4" x="62.2" y="6.32" width="28.43" height="0.8"/><rect class="cls-1" x="6.78" y="78.13" width="2.22" height="4.81"/><rect class="cls-1" x="19.43" y="78.13" width="2.22" height="4.81"/><rect class="cls-1" x="6.78" y="45.35" width="2.22" height="6.29"/><rect class="cls-1" x="19.43" y="45.35" width="2.22" height="6.29"/><rect class="cls-2" x="9" y="78.13" width="10.42" height="4.08"/><rect class="cls-4" x="0.01" y="77.32" width="28.43" height="0.8"/><rect class="cls-4" y="51.64" width="28.43" height="0.8"/><rect class="cls-1" x="38.74" y="78.06" width="2.22" height="4.81"/><rect class="cls-1" x="51.39" y="78.06" width="2.22" height="4.81"/><rect class="cls-1" x="38.74" y="45.28" width="2.22" height="6.29"/><rect class="cls-1" x="51.39" y="45.28" width="2.22" height="6.29"/><rect class="cls-2" x="40.96" y="78.06" width="10.42" height="4.08"/><rect class="cls-4" x="31.97" y="77.26" width="28.43" height="0.8"/><rect class="cls-4" x="31.96" y="51.58" width="28.43" height="0.8"/><rect class="cls-1" x="68.98" y="78.1" width="2.22" height="4.81"/><rect class="cls-1" x="81.63" y="78.1" width="2.22" height="4.81"/><rect class="cls-1" x="68.98" y="45.32" width="2.22" height="6.29"/><rect class="cls-1" x="81.63" y="45.32" width="2.22" height="6.29"/><rect class="cls-2" x="71.2" y="78.1" width="10.42" height="4.08"/><rect class="cls-4" x="62.21" y="77.29" width="28.43" height="0.8"/><rect class="cls-4" x="62.2" y="51.61" width="28.43" height="0.8"/></g></svg>