<svg id="Calque_1" data-name="Calque 1" xmlns="http://www.w3.org/2000/svg" viewBox="0 0 78.1 90.6"><defs><style>.cls-1{fill:#2a2b2b;}.cls-2{fill:#6ec8e2;}.cls-3,.cls-5{fill:#666869;}.cls-3{opacity:0.27;}.cls-4{fill:#3d3d3d;}.cls-6{fill:#3a3a3a;}</style></defs><title>hydroOxygenComplex</title><circle class="cls-1" cx="5.94" cy="5.94" r="5.94"/><circle class="cls-1" cx="30.05" cy="5.94" r="5.94"/><circle class="cls-1" cx="5.94" cy="30.05" r="5.94"/><circle class="cls-1" cx="30.05" cy="30.05" r="5.94"/><polygon class="cls-1" points="1.74 10.13 17.99 17.99 10.13 1.74 3.42 3.38 1.74 10.13"/><polygon class="cls-1" points="25.85 1.74 17.99 17.99 34.25 10.13 32.61 3.42 25.85 1.74"/><polygon class="cls-1" points="34.25 25.85 17.99 17.99 25.85 34.25 32.57 32.61 34.25 25.85"/><polygon class="cls-1" points="10.13 34.25 17.99 17.99 1.74 25.85 3.38 32.57 10.13 34.25"/><circle class="cls-1" cx="17.99" cy="17.99" r="4.76"/><rect class="cls-2" x="46.79" y="64.73" width="39.88" height="14.31" rx="4.73" ry="4.73" transform="translate(128.96 0.58) rotate(90)"/><rect class="cls-3" x="46.01" y="63.65" width="41.38" height="16.46" rx="5.52" ry="5.52" transform="translate(128.93 0.61) rotate(90)"/><rect class="cls-4" x="64.6" y="42.43" width="4.5" height="16.81" transform="translate(108.03 -20.58) rotate(90)"/><rect class="cls-4" x="64.6" y="84.45" width="4.5" height="16.81" transform="translate(150.04 21.43) rotate(90)"/><rect class="cls-2" x="28.8" y="64.77" width="39.88" height="14.31" rx="4.73" ry="4.73" transform="translate(111 18.61) rotate(90)"/><rect class="cls-3" x="28.02" y="63.69" width="41.38" height="16.46" rx="5.52" ry="5.52" transform="translate(110.97 18.64) rotate(90)"/><rect class="cls-4" x="46.6" y="42.47" width="4.5" height="16.81" transform="translate(90.07 -2.55) rotate(90)"/><rect class="cls-4" x="46.6" y="84.49" width="4.5" height="16.81" transform="translate(132.09 39.47) rotate(90)"/><rect class="cls-2" x="10.8" y="64.81" width="39.88" height="14.31" rx="4.73" ry="4.73" transform="translate(93.04 36.64) rotate(90)"/><rect class="cls-3" x="10.03" y="63.73" width="41.38" height="16.46" rx="5.52" ry="5.52" transform="translate(93.02 36.67) rotate(90)"/><rect class="cls-4" x="28.61" y="42.51" width="4.5" height="16.81" transform="translate(72.11 15.48) rotate(90)"/><rect class="cls-4" x="28.61" y="84.53" width="4.5" height="16.81" transform="translate(114.13 57.5) rotate(90)"/><circle class="cls-5" cx="17.99" cy="17.99" r="17.99"/><circle class="cls-6" cx="17.99" cy="17.99" r="16.26"/><circle class="cls-1" cx="48.05" cy="5.94" r="5.94"/><circle class="cls-1" cx="72.16" cy="5.94" r="5.94"/><circle class="cls-1" cx="48.05" cy="30.05" r="5.94"/><circle class="cls-1" cx="72.16" cy="30.05" r="5.94"/><polygon class="cls-1" points="43.85 10.13 60.1 17.99 52.24 1.74 45.53 3.38 43.85 10.13"/><polygon class="cls-1" points="67.96 1.74 60.1 17.99 76.36 10.13 74.72 3.42 67.96 1.74"/><polygon class="cls-1" points="76.36 25.85 60.1 17.99 67.96 34.25 74.68 32.61 76.36 25.85"/><polygon class="cls-1" points="52.24 34.25 60.1 17.99 43.85 25.85 45.49 32.57 52.24 34.25"/><circle class="cls-1" cx="60.1" cy="17.99" r="4.76"/><circle class="cls-5" cx="60.1" cy="17.99" r="17.99"/><circle class="cls-6" cx="60.1" cy="17.99" r="16.26"/></svg>