<svg xmlns="http://www.w3.org/2000/svg" viewBox="0 0 100 100"><defs><style>.cls-1{fill:#575656;}.cls-2{fill:#585656;stroke:#efefef;stroke-miterlimit:10;}.cls-3{fill:#efefef;}</style></defs><title>lauchingRamp</title><g id="Calque_1" data-name="Calque 1"><circle class="cls-1" cx="50" cy="50" r="50"/><circle class="cls-2" cx="50" cy="50" r="27.02"/><circle class="cls-2" cx="50" cy="50" r="47.47"/></g><g id="Calque_2" data-name="Calque 2"><path class="cls-3" d="M38.89,39.86l-.25.93L44.32,48c1-1.1,2.19-2.2,3.39-3.31l-3.78-4.9Z" transform="translate(0 0)"/><path class="cls-3" d="M50.18,48.49c-1,1.31-2,2.63-2.89,4l4.9,6.37,5.05,0,.22-.85Z" transform="translate(0 0)"/><path class="cls-3" d="M40.87,59.59l-3.1-.19-.21-.87c2.35-4.08,12.83-21.43,33.32-22.08,0,0-17.15.17-30,23.14" transform="translate(0 0)"/></g></svg>