<svg id="Calque_1" data-name="Calque 1" xmlns="http://www.w3.org/2000/svg" viewBox="0 0 95.55 84.47"><defs><style>.cls-1{fill:#a85117;}.cls-2{fill:#6b400f;}.cls-3{fill:#3e8779;}.cls-4{fill:#4d4c4b;}.cls-5{fill:#3d3d3d;}.cls-6{fill:#7f7f7e;}</style></defs><title>oilSlickDrill</title><polygon class="cls-1" points="0.54 19.74 13.92 11.71 18.6 0 40.01 5.35 60.59 0 77.65 10.87 83 11.21 87.85 32.62 95.55 52.69 68.28 64.74 68.28 84.47 30.31 82.3 14.08 65.07 16.93 49.68 0.54 43.83 0.54 19.74"/><polygon class="cls-2" points="10.57 24.92 30.64 19.57 39.51 13.55 61.09 17.73 70.12 13.55 77.31 37.3 85.34 48.01 64.27 55.87 57.58 74.61 36.67 62.23 29.14 70.26 25.13 44.08 8.56 35.13 10.57 24.92"/><polygon class="cls-3" points="15.09 27.6 15.09 33.96 31.31 39.48 30.31 63.9 37.5 59.05 55.57 69.92 63.26 51.69 81 47.34 68.78 35.63 68.62 19.91 55.07 22.41 38.51 19.91 30.81 24.59 15.09 27.6"/><circle class="cls-4" cx="50.06" cy="33.23" r="11.05"/><circle class="cls-5" cx="50.06" cy="33.23" r="10.12"/><rect class="cls-5" y="18.24" width="37.05" height="29.98" rx="3.1" ry="3.1"/><rect class="cls-6" x="20.53" y="29.27" width="34.78" height="7.91" rx="3.96" ry="3.96"/><circle class="cls-4" cx="50.06" cy="33.23" r="2.23"/><rect class="cls-4" y="18.22" width="30.02" height="30.02" rx="2.75" ry="2.75"/></svg>