<svg xmlns="http://www.w3.org/2000/svg" viewBox="0 0 56.81 60.02"><defs><style>.cls-1{fill:#303031;}.cls-2{fill:#7f7f7e;}.cls-3{fill:#4a9b9b;}.cls-4{fill:#5b5a5b;}.cls-5{fill:#cf2639;}</style></defs><title>sickBay</title><g id="Calque_1" data-name="Calque 1"><path class="cls-1" d="M31.4,73.85s-8.17,0-8.17-11.23H31.4Z" transform="translate(-22.25 -17.19)"/><path class="cls-1" d="M76.91,62.62s0,11.23-8.17,11.23V62.62Z" transform="translate(-22.25 -17.19)"/><path class="cls-1" d="M68.74,20.55s8.17,0,8.17,11.23H68.74Z" transform="translate(-22.25 -17.19)"/><path class="cls-1" d="M23.23,31.78s0-11.23,8.17-11.23V31.78Z" transform="translate(-22.25 -17.19)"/><rect class="cls-2" x="23.42" y="28.53" width="53.3" height="37.35" transform="translate(-19.38 80.08) rotate(-90)"/><rect class="cls-2" x="11.89" y="43.12" width="30.84" height="8.17" transform="translate(-42.14 57.32) rotate(-90)"/><rect class="cls-3" x="22.25" y="36.2" width="9.15" height="22" transform="translate(31.4 77.21) rotate(-180)"/><rect class="cls-1" x="45.18" y="7.36" width="10.95" height="37.35" transform="translate(2.38 59.49) rotate(-90)"/><rect class="cls-1" x="45.18" y="49.56" width="10.95" height="37.35" transform="translate(-39.83 101.7) rotate(-90)"/><rect class="cls-1" x="71.06" y="57.05" width="4.7" height="7" transform="translate(-9.39 116.77) rotate(-90)"/><rect class="cls-1" x="71.06" y="30.35" width="4.7" height="7" transform="translate(17.31 90.07) rotate(-90)"/><rect class="cls-1" x="24.47" y="55.98" width="4.7" height="9.15" transform="translate(-55.98 70.18) rotate(-90)"/><rect class="cls-1" x="24.47" y="29.28" width="4.7" height="9.15" transform="translate(-29.28 43.48) rotate(-90)"/><rect class="cls-1" x="72.14" y="55.98" width="4.7" height="9.15" transform="translate(-8.31 117.85) rotate(-90)"/><rect class="cls-1" x="72.14" y="29.28" width="4.7" height="9.15" transform="translate(18.38 91.15) rotate(-90)"/><rect class="cls-2" x="61.88" y="44.24" width="22" height="5.93" transform="translate(3.43 102.89) rotate(-90)"/><rect class="cls-4" x="39.32" y="46.61" width="60.01" height="1.17" transform="translate(-0.12 99.33) rotate(-90)"/><rect class="cls-4" x="1.98" y="46.62" width="60.01" height="1.17" transform="translate(-37.47 61.99) rotate(-90)"/><rect class="cls-3" x="69.91" y="36.2" width="9.15" height="22" transform="translate(126.72 77.21) rotate(-180)"/></g><g id="Croix"><rect class="cls-5" x="14.88" y="27.08" width="27.38" height="5.87"/><rect class="cls-5" x="37.13" y="44.61" width="27.38" height="5.87" transform="translate(76.11 -20.46) rotate(90)"/></g></svg>