<svg xmlns="http://www.w3.org/2000/svg" viewBox="0 0 60.65 68.7"><defs><style>.cls-1{fill:#806348;}.cls-2{fill:#666869;opacity:0.88;}.cls-3{fill:#3d3d3d;}.cls-4{fill:none;stroke:#14120b;stroke-miterlimit:10;stroke-width:0.5px;}</style></defs><title>silo</title><g id="Calque_1" data-name="Calque 1"><rect class="cls-1" x="1.67" y="4.37" width="57.3" height="23.16" rx="8.23" ry="8.23"/><rect class="cls-2" x="0.25" y="2.79" width="60.15" height="26.31" rx="8.23" ry="8.23"/><rect class="cls-3" x="56.31" y="0.25" width="4.08" height="31.55"/><rect class="cls-3" x="0.25" y="0.25" width="4.08" height="31.55"/><rect class="cls-3" x="16.56" y="0.92" width="1.02" height="30.2"/><rect class="cls-3" x="29.81" y="0.85" width="1.02" height="30.2"/><rect class="cls-3" x="43.06" y="0.92" width="1.02" height="30.2"/><rect class="cls-1" x="1.67" y="41.03" width="57.3" height="23.16" rx="8.23" ry="8.23"/><rect class="cls-2" x="0.25" y="39.45" width="60.15" height="26.31" rx="8.23" ry="8.23"/><rect class="cls-3" x="56.31" y="36.91" width="4.08" height="31.55"/><rect class="cls-3" x="0.25" y="36.91" width="4.08" height="31.55"/><rect class="cls-3" x="16.56" y="37.58" width="1.02" height="30.2"/><rect class="cls-3" x="29.81" y="37.5" width="1.02" height="30.2"/><rect class="cls-3" x="43.06" y="37.58" width="1.02" height="30.2"/><path class="cls-4" d="M6.27,78.81V47.27h4.08v3.67a8,8,0,0,1,4.15-1.13h8.08V47.94h1v1.87H35.83V47.86h1v1.94H49.08V47.94h1v1.87h8.08a8.77,8.77,0,0,1,4.15,1.12V47.27h4.08V78.81H62.33V75a7.53,7.53,0,0,1-4.15,1.12H50.1v2h-1v-2H36.85v1.94h-1V76.12H23.6v2h-1v-2H14.5A8.06,8.06,0,0,1,10.35,75v3.82Z" transform="translate(-6.02 -10.36)"/></g><g id="Contour"><path class="cls-4" d="M6.27,42.16V10.61h4.08v3.67a8,8,0,0,1,4.15-1.13h8.08V11.28h1v1.87H35.83V11.21h1v1.94H49.08V11.28h1v1.87h8.08a8.77,8.77,0,0,1,4.15,1.12V10.61h4.08V42.16H62.33V38.34a7.53,7.53,0,0,1-4.15,1.12H50.1v2h-1v-2H36.85v1.94h-1V39.46H23.6v2h-1v-2H14.5a8.06,8.06,0,0,1-4.15-1.12v3.82Z" transform="translate(-6.02 -10.36)"/></g></svg>