<svg id="Calque_1" data-name="Calque 1" xmlns="http://www.w3.org/2000/svg" viewBox="0 0 97.16 60.35"><defs><style>.cls-1{fill:#303031;}.cls-2{fill:#7f7f7e;}.cls-3{fill:#4a9b9b;}.cls-4{fill:#5b5a5b;}</style></defs><title>sportsHall</title><path class="cls-1" d="M96.9,34.78s0-11.23-14-11.23V34.78Z" transform="translate(-1.42 -20.2)"/><path class="cls-1" d="M17.06,76.85s-14,0-14-11.23h14Z" transform="translate(-1.42 -20.2)"/><path class="cls-1" d="M94.9,65.62s0,11.23-14,11.23V65.62Z" transform="translate(-1.42 -20.2)"/><path class="cls-1" d="M3.1,34.78s0-11.23,14-11.23V34.78Z" transform="translate(-1.42 -20.2)"/><rect class="cls-2" x="23.35" y="17.27" width="53.3" height="65.87" transform="translate(-1.62 80) rotate(-90)"/><rect class="cls-2" x="-5.34" y="43.22" width="30.84" height="13.97" transform="translate(-41.54 40.08) rotate(-90)"/><rect class="cls-3" x="1.42" y="39.2" width="7.82" height="22" transform="translate(9.24 80.21) rotate(-180)"/><rect class="cls-1" x="44.52" y="-3.91" width="10.95" height="65.87" transform="translate(19.55 58.83) rotate(-90)"/><rect class="cls-1" x="44.52" y="38.3" width="10.95" height="65.87" transform="translate(-22.66 101.04) rotate(-90)"/><rect class="cls-1" x="86.57" y="57.57" width="4.7" height="11.97" transform="translate(23.95 132.27) rotate(-90)"/><rect class="cls-1" x="86.57" y="30.87" width="4.7" height="11.97" transform="translate(50.65 105.57) rotate(-90)"/><rect class="cls-1" x="6.89" y="55.73" width="4.7" height="15.64" transform="translate(-55.73 52.59) rotate(-90)"/><rect class="cls-1" x="6.89" y="29.03" width="4.7" height="15.64" transform="translate(-29.03 25.9) rotate(-90)"/><rect class="cls-1" x="88.41" y="55.73" width="4.7" height="15.64" transform="translate(25.79 134.11) rotate(-90)"/><rect class="cls-1" x="88.41" y="29.03" width="4.7" height="15.64" transform="translate(52.48 107.41) rotate(-90)"/><rect class="cls-2" x="77.01" y="45.13" width="22" height="10.15" transform="translate(36.39 118.01) rotate(-90)"/><rect class="cls-4" x="59.91" y="49.54" width="60.01" height="2" transform="translate(37.96 120.26) rotate(-90)"/><rect class="cls-4" x="-19.93" y="49.2" width="60.01" height="2" transform="translate(-41.54 40.08) rotate(-90)"/><rect class="cls-3" x="90.99" y="39.2" width="7.59" height="22" transform="translate(188.15 80.21) rotate(-180)"/><rect class="cls-1" x="26.42" y="28.54" width="44.31" height="1.47" rx="0.73" ry="0.73"/><rect class="cls-1" x="32.82" y="22.74" width="4.44" height="13.06" rx="1.12" ry="1.12"/><rect class="cls-1" x="59.37" y="22.74" width="4.44" height="13.06" rx="1.12" ry="1.12"/><rect class="cls-1" x="29.32" y="24.77" width="3.06" height="9.01" rx="1.12" ry="1.12"/><rect class="cls-1" x="64.25" y="24.77" width="3.06" height="9.01" rx="1.12" ry="1.12"/></svg>