<svg id="Calque_1" data-name="Calque 1" xmlns="http://www.w3.org/2000/svg" viewBox="0 0 91.96 90.55"><defs><style>.cls-1{fill:#7f7f7e;}.cls-2{fill:#6b410f;}.cls-3{fill:#666869;opacity:0.27;}.cls-4{fill:#3d3d3d;}.cls-5{fill:#303031;}.cls-6{fill:#4a9b9b;}.cls-7{fill:#5b5a5b;}</style></defs><title>sulfurFactory</title><rect class="cls-1" x="52.89" y="32.38" width="14.31" height="3.94" rx="1.97" ry="1.97" transform="translate(114.81 63.75) rotate(-180)"/><rect class="cls-1" x="52.89" y="32.38" width="3.64" height="36.99" rx="1.82" ry="1.82" transform="translate(104.14 96.79) rotate(180)"/><rect class="cls-1" x="27.37" y="27.34" width="14.31" height="3.94" rx="1.97" ry="1.97"/><rect class="cls-1" x="38.04" y="27.34" width="3.64" height="36.34" rx="1.82" ry="1.82"/><rect class="cls-2" x="30.64" y="74.68" width="24.79" height="12.7" rx="4.73" ry="4.73" transform="translate(-43.27 119.11) rotate(-90)"/><rect class="cls-3" x="30.17" y="74.03" width="25.72" height="14" rx="5.52" ry="5.52" transform="translate(-43.27 119.11) rotate(-90)"/><rect class="cls-4" x="41.65" y="87.12" width="2.8" height="13.97" transform="translate(-56.34 132.2) rotate(-90)"/><rect class="cls-4" x="41.65" y="61.01" width="2.8" height="13.97" transform="translate(-30.22 106.09) rotate(-90)"/><rect class="cls-2" x="45.91" y="74.65" width="24.79" height="12.7" rx="4.73" ry="4.73" transform="translate(-27.98 134.35) rotate(-90)"/><rect class="cls-3" x="45.44" y="74" width="25.72" height="14" rx="5.52" ry="5.52" transform="translate(-27.98 134.35) rotate(-90)"/><rect class="cls-4" x="56.92" y="87.1" width="2.8" height="13.97" transform="translate(-41.05 147.45) rotate(-90)"/><rect class="cls-4" x="56.92" y="60.98" width="2.8" height="13.97" transform="translate(-14.93 121.33) rotate(-90)"/><path class="cls-5" d="M89.19,57.61s6.19,0,6.19-7.7H89.19Z" transform="translate(-5.28 -4.95)"/><path class="cls-5" d="M66,13.58s0-7.7,6.19-7.7v7.7Z" transform="translate(-5.28 -4.95)"/><path class="cls-5" d="M72.18,56.51s-6.19,0-6.19-7.7h6.19Z" transform="translate(-5.28 -4.95)"/><path class="cls-5" d="M89.19,5.88s6.19,0,6.19,7.7H89.19Z" transform="translate(-5.28 -4.95)"/><rect class="cls-1" x="60.71" y="8.63" width="29.4" height="36.33"/><rect class="cls-1" x="66.9" y="0.92" width="17.01" height="7.7"/><rect class="cls-6" x="78.53" y="1.04" width="4.31" height="12.14" transform="translate(68.3 82.84) rotate(-90)"/><rect class="cls-5" x="84.06" y="8.63" width="6.04" height="36.33"/><rect class="cls-5" x="60.79" y="8.63" width="6.04" height="36.33"/><rect class="cls-5" x="66.75" y="44.96" width="2.59" height="6.6"/><rect class="cls-5" x="81.48" y="44.96" width="2.59" height="6.6"/><rect class="cls-5" x="66.75" width="2.59" height="8.63"/><rect class="cls-5" x="81.48" width="2.59" height="8.63"/><rect class="cls-5" x="66.75" y="44.96" width="2.59" height="8.63"/><rect class="cls-5" x="81.48" y="44.96" width="2.59" height="8.63"/><rect class="cls-1" x="69.34" y="44.96" width="12.14" height="5.6"/><rect class="cls-7" x="58.67" y="48.26" width="33.1" height="1.1"/><rect class="cls-7" x="58.86" y="4.23" width="33.1" height="1.1"/><rect class="cls-6" x="78.6" y="50.38" width="4.18" height="12.14" transform="translate(18.96 132.18) rotate(-90)"/><path class="cls-5" d="M30.52,57.61s6.19,0,6.19-7.7H30.52Z" transform="translate(-5.28 -4.95)"/><path class="cls-5" d="M7.32,13.58s0-7.7,6.19-7.7v7.7Z" transform="translate(-5.28 -4.95)"/><path class="cls-5" d="M13.51,56.51s-6.19,0-6.19-7.7h6.19Z" transform="translate(-5.28 -4.95)"/><path class="cls-5" d="M30.52,5.88s6.19,0,6.19,7.7H30.52Z" transform="translate(-5.28 -4.95)"/><rect class="cls-1" x="2.04" y="8.63" width="29.4" height="36.33"/><rect class="cls-1" x="8.23" y="0.92" width="17.01" height="7.7"/><rect class="cls-6" x="19.86" y="1.04" width="4.31" height="12.14" transform="translate(9.63 24.17) rotate(-90)"/><rect class="cls-5" x="25.39" y="8.63" width="6.04" height="36.33"/><rect class="cls-5" x="2.12" y="8.63" width="6.04" height="36.33"/><rect class="cls-5" x="8.08" y="44.96" width="2.59" height="6.6"/><rect class="cls-5" x="22.81" y="44.96" width="2.59" height="6.6"/><rect class="cls-5" x="8.08" width="2.59" height="8.63"/><rect class="cls-5" x="22.81" width="2.59" height="8.63"/><rect class="cls-5" x="8.08" y="44.96" width="2.59" height="8.63"/><rect class="cls-5" x="22.81" y="44.96" width="2.59" height="8.63"/><rect class="cls-1" x="10.67" y="44.96" width="12.14" height="5.6"/><rect class="cls-7" y="48.26" width="33.1" height="1.1"/><rect class="cls-7" x="0.19" y="4.23" width="33.1" height="1.1"/><rect class="cls-6" x="19.93" y="50.38" width="4.18" height="12.14" transform="translate(-39.71 73.51) rotate(-90)"/></svg>