<svg id="Calque_1" data-name="Calque 1" xmlns="http://www.w3.org/2000/svg" viewBox="0 0 54.48 70.64"><defs><style>.cls-1{fill:#f8f7f7;}.cls-2{fill:#836733;}.cls-3{fill:#b783a1;}.cls-4{fill:#e9eaf6;}.cls-5{fill:#544021;}</style></defs><title>food</title><rect class="cls-1" x="34.85" y="67" width="6.43" height="16.39" transform="translate(12.89 -26.01) rotate(28.53)"/><ellipse class="cls-2" cx="64.66" cy="29.29" rx="8.96" ry="19.4" transform="translate(-20.28 54.23) rotate(-60.55)"/><ellipse class="cls-3" cx="64.66" cy="29.29" rx="7.36" ry="17.87" transform="translate(-20.28 54.23) rotate(-60.55)"/><ellipse class="cls-4" cx="64.73" cy="29.33" rx="1.5" ry="3.64" transform="translate(-20.28 54.31) rotate(-60.55)"/><path class="cls-5" d="M47.77,19.75s-18,23.13-12.49,43.62S68.54,68.8,81.55,38.83c0,0-4.91,7.05-21.3-1.74C48.53,30.18,45.88,22.51,47.77,19.75Z" transform="translate(-27.65 -16.96)"/><circle class="cls-1" cx="3.68" cy="63.89" r="3.68"/><circle class="cls-1" cx="9.48" cy="66.96" r="3.68"/><path class="cls-1" d="M29,78s7.23-2.43,8.09-4.4l-3.68,6.67Z" transform="translate(-27.65 -16.96)"/><path class="cls-1" d="M40.8,83.93s-1.22-5.58-.92-7.55-3.56,3.77-3.56,3.77Z" transform="translate(-27.65 -16.96)"/></svg>