<svg id="Calque_1" data-name="Calque 1" xmlns="http://www.w3.org/2000/svg" viewBox="0 0 66.42 70.19"><defs><style>.cls-1{fill:#8b8b8c;}.cls-2{fill:#555453;}.cls-3{fill:#6e6d6d;}.cls-4{fill:#7c7c7a;}</style></defs><title>materials</title><polygon class="cls-1" points="0 61.75 32.18 20.74 11.78 61.75 0 61.75"/><rect class="cls-2" y="39.82" width="36" height="8.44"/><rect class="cls-2" y="61.75" width="36" height="8.44"/><path class="cls-2" d="M23.39,54.06v8.43a6.75,6.75,0,1,1,0,13.5v8.43H35.82V54.06Z" transform="translate(-17.82 -14.24)"/><path class="cls-2" d="M48.25,54.06v8.43a6.75,6.75,0,0,0,0,13.5v8.43H35.82V54.06Z" transform="translate(-17.82 -14.24)"/><rect class="cls-2" x="30.43" width="36" height="8.44"/><rect class="cls-2" x="30.43" y="21.93" width="36" height="8.44"/><path class="cls-2" d="M53.82,14.24v8.43a6.75,6.75,0,1,1,0,13.5V44.6H66.25V14.24Z" transform="translate(-17.82 -14.24)"/><path class="cls-2" d="M78.68,14.24v8.43a6.75,6.75,0,0,0,0,13.5V44.6H66.25V14.24Z" transform="translate(-17.82 -14.24)"/><polygon class="cls-3" points="0 39.82 30.43 0 66.42 0 36 39.82 0 39.82"/><polygon class="cls-4" points="36 48.26 66.42 8.44 66.42 0 36 39.82 36 48.26"/><polygon class="cls-4" points="36 70.19 66.42 30.37 66.42 21.93 36 61.75 36 70.19"/><path class="cls-1" d="M84.25,36.17H78.68A6.83,6.83,0,0,1,74.84,35l-21,27.52H48.25s-6.75-.27-6.75,6.75S48.25,76,48.25,76h5.57Z" transform="translate(-17.82 -14.24)"/></svg>